<svg width="26" height="27" viewBox="0 0 26 27" fill="none" xmlns="http://www.w3.org/2000/svg">
<path fill-rule="evenodd" clip-rule="evenodd" d="M4.875 5.3993C3.97753 5.3993 3.25 6.12459 3.25 7.0193V21.5993C3.25 22.494 3.97753 23.2193 4.875 23.2193H21.125C22.0224 23.2193 22.75 22.494 22.75 21.5993V7.0193C22.75 6.12459 22.0224 5.3993 21.125 5.3993H4.875ZM1.625 7.0193C1.625 5.2299 3.08008 3.7793 4.875 3.7793H21.125C22.92 3.7793 24.375 5.2299 24.375 7.0193V21.5993C24.375 23.3888 22.92 24.8393 21.125 24.8393H4.875C3.08008 24.8393 1.625 23.3888 1.625 21.5993V7.0193Z" fill="#635F5F"/>
<path d="M15.0312 13.5003C15.7043 13.5003 16.25 12.9563 16.25 12.2853C16.25 11.6143 15.7043 11.0703 15.0312 11.0703C14.3582 11.0703 13.8125 11.6143 13.8125 12.2853C13.8125 12.9563 14.3582 13.5003 15.0312 13.5003Z" fill="#635F5F"/>
<path d="M19.0938 13.5003C19.7668 13.5003 20.3125 12.9563 20.3125 12.2853C20.3125 11.6143 19.7668 11.0703 19.0938 11.0703C18.4207 11.0703 17.875 11.6143 17.875 12.2853C17.875 12.9563 18.4207 13.5003 19.0938 13.5003Z" fill="#635F5F"/>
<path d="M15.0312 17.5491C15.7043 17.5491 16.25 17.0051 16.25 16.3341C16.25 15.6631 15.7043 15.1191 15.0312 15.1191C14.3582 15.1191 13.8125 15.6631 13.8125 16.3341C13.8125 17.0051 14.3582 17.5491 15.0312 17.5491Z" fill="#635F5F"/>
<path d="M19.0938 17.5491C19.7668 17.5491 20.3125 17.0051 20.3125 16.3341C20.3125 15.6631 19.7668 15.1191 19.0938 15.1191C18.4207 15.1191 17.875 15.6631 17.875 16.3341C17.875 17.0051 18.4207 17.5491 19.0938 17.5491Z" fill="#635F5F"/>
<path d="M6.90625 17.5491C7.57935 17.5491 8.125 17.0051 8.125 16.3341C8.125 15.6631 7.57935 15.1191 6.90625 15.1191C6.23315 15.1191 5.6875 15.6631 5.6875 16.3341C5.6875 17.0051 6.23315 17.5491 6.90625 17.5491Z" fill="#635F5F"/>
<path d="M10.9688 17.5491C11.6418 17.5491 12.1875 17.0051 12.1875 16.3341C12.1875 15.6631 11.6418 15.1191 10.9688 15.1191C10.2957 15.1191 9.75 15.6631 9.75 16.3341C9.75 17.0051 10.2957 17.5491 10.9688 17.5491Z" fill="#635F5F"/>
<path d="M6.90625 21.5999C7.57935 21.5999 8.125 21.0559 8.125 20.3849C8.125 19.7139 7.57935 19.1699 6.90625 19.1699C6.23315 19.1699 5.6875 19.7139 5.6875 20.3849C5.6875 21.0559 6.23315 21.5999 6.90625 21.5999Z" fill="#635F5F"/>
<path d="M10.9688 21.5999C11.6418 21.5999 12.1875 21.0559 12.1875 20.3849C12.1875 19.7139 11.6418 19.1699 10.9688 19.1699C10.2957 19.1699 9.75 19.7139 9.75 20.3849C9.75 21.0559 10.2957 21.5999 10.9688 21.5999Z" fill="#635F5F"/>
<path d="M15.0312 21.5999C15.7043 21.5999 16.25 21.0559 16.25 20.3849C16.25 19.7139 15.7043 19.1699 15.0312 19.1699C14.3582 19.1699 13.8125 19.7139 13.8125 20.3849C13.8125 21.0559 14.3582 21.5999 15.0312 21.5999Z" fill="#635F5F"/>
<path fill-rule="evenodd" clip-rule="evenodd" d="M6.5 2.16016C6.94873 2.16016 7.3125 2.52281 7.3125 2.97016V4.59016C7.3125 5.0375 6.94873 5.40016 6.5 5.40016C6.05127 5.40016 5.6875 5.0375 5.6875 4.59016V2.97016C5.6875 2.52281 6.05127 2.16016 6.5 2.16016ZM19.5 2.16016C19.9487 2.16016 20.3125 2.52281 20.3125 2.97016V4.59016C20.3125 5.0375 19.9487 5.40016 19.5 5.40016C19.0513 5.40016 18.6875 5.0375 18.6875 4.59016V2.97016C18.6875 2.52281 19.0513 2.16016 19.5 2.16016Z" fill="#635F5F"/>
<path fill-rule="evenodd" clip-rule="evenodd" d="M2.4375 7.83008H23.5625V9.45008H2.4375V7.83008Z" fill="#635F5F"/>
</svg>
