<svg width="23" height="24" viewBox="0 0 23 24" fill="none" xmlns="http://www.w3.org/2000/svg">
<path d="M20.2284 1.33557L20.2284 1.33531C19.0311 0.342354 17.5072 -0.126296 15.9815 0.0292757C14.4559 0.184848 13.0492 0.952334 12.0613 2.1681L10.3423 4.3018C10.0929 4.61134 9.97232 5.01094 10.007 5.4127C10.0418 5.81445 10.2289 6.18545 10.5274 6.44407C10.8259 6.70269 11.2112 6.82776 11.5986 6.79176C11.986 6.75575 12.3437 6.56163 12.5931 6.25208L14.3122 4.11812C14.5633 3.80746 14.8718 3.55214 15.2197 3.36726C15.5675 3.18238 15.9475 3.07168 16.3373 3.04171C16.7271 3.01173 17.1187 3.0631 17.489 3.19276C17.8593 3.32242 18.2008 3.52775 18.4933 3.79662C19.0565 4.33935 19.3961 5.08638 19.4416 5.88225C19.4871 6.67812 19.2349 7.46153 18.7375 8.06946L15.1635 12.5071L15.1306 12.5449C14.9397 12.7745 14.716 12.9725 14.4672 13.1319C13.8923 13.5018 13.2113 13.6531 12.5407 13.5602C11.8701 13.4672 11.2514 13.1357 10.7903 12.6222C10.525 12.3279 10.1579 12.1548 9.76969 12.1409C9.38145 12.127 9.00376 12.2734 8.71949 12.548C8.43522 12.8226 8.2676 13.2029 8.25342 13.6055C8.23924 14.0081 8.37965 14.4001 8.64384 14.6954C9.30706 15.4334 10.1371 15.9886 11.0589 16.3107C11.9808 16.6328 12.9655 16.7117 13.9241 16.5404C14.224 16.4858 14.5194 16.4075 14.8077 16.3063C15.8263 15.9499 16.7299 15.3079 17.4182 14.4516L20.9834 10.0263C21.4905 9.39186 21.8715 8.65971 22.1047 7.87196C22.3379 7.08421 22.4185 6.25642 22.342 5.43623C22.2721 4.64085 22.049 3.8681 21.686 3.16374C21.3229 2.45938 20.8273 1.83772 20.2284 1.33557V1.33557Z" fill="#635F5F"/>
<path d="M9.67471 17.768L8.13841 19.6751C7.64994 20.2907 6.95134 20.6874 6.18801 20.7824C5.42468 20.8774 4.65542 20.6635 4.04032 20.1852C3.73319 19.9345 3.47762 19.6225 3.28874 19.2677C3.09986 18.9128 2.9815 18.5223 2.94065 18.1192C2.8998 17.7161 2.93729 17.3086 3.05091 16.9207C3.16453 16.5329 3.35197 16.1727 3.60214 15.8612L7.23775 11.3483L7.26451 11.3173C7.45543 11.0877 7.67916 10.8899 7.92791 10.7306C8.44918 10.3935 9.05987 10.2358 9.6727 10.2802C10.2855 10.3246 10.8692 10.5688 11.3402 10.9778C11.453 11.0755 11.5586 11.1818 11.6561 11.2958C11.7957 11.4597 11.9679 11.5904 12.1607 11.6789C12.3536 11.7674 12.5626 11.8117 12.7734 11.8087C12.9818 11.8057 13.1871 11.756 13.3752 11.6631C13.5634 11.5702 13.73 11.4363 13.8636 11.2705L13.8812 11.2486C14.1055 10.9729 14.2265 10.6226 14.222 10.2619C14.2175 9.90122 14.0877 9.55429 13.8565 9.28475C13.2983 8.6292 12.6101 8.10647 11.839 7.75234C11.0679 7.39822 10.2321 7.22106 9.38885 7.23299C8.5456 7.24492 7.71479 7.44566 6.95328 7.82147C6.19178 8.19728 5.51757 8.73928 4.97679 9.41038L1.35133 13.911C0.373462 15.1354 -0.104548 16.7075 0.0191977 18.2922C0.142943 19.8769 0.858656 21.3487 2.01376 22.394C2.59676 22.9158 3.27479 23.3111 4.00771 23.5563C4.74063 23.8015 5.51354 23.8917 6.28067 23.8215C6.46354 23.8062 6.645 23.7821 6.82506 23.7492C8.21916 23.496 9.48279 22.7419 10.3943 21.619L11.9255 19.7183C12.1749 19.4088 12.2955 19.0092 12.2608 18.6074C12.2261 18.2057 12.0389 17.8347 11.7404 17.5761C11.4419 17.3174 11.0566 17.1924 10.6692 17.2284C10.2818 17.2644 9.92408 17.4585 9.6747 17.768H9.67471Z" fill="#635F5F"/>
</svg>
