<svg width="16" height="16" viewBox="0 0 16 16" fill="none" xmlns="http://www.w3.org/2000/svg">
    <g clip-path="url(#clip0_3741_2331)">
        <path d="M8.00036 5.00462C10.2095 5.00462 12.0004 6.79549 12.0004 9.00462C12.0004 11.2138 10.2095 13.0046 8.00036 13.0046C5.79122 13.0046 4.00036 11.2138 4.00036 9.00462C4.00036 6.79549 5.79122 5.00462 8.00036 5.00462ZM8.00036 1.5C12.6139 1.5 16.5965 4.65001 17.7015 9.06439C17.8021 9.4662 17.5579 9.87348 17.1561 9.97406C16.7542 10.0746 16.347 9.83045 16.2464 9.42863C15.3075 5.67796 11.9217 3 8.00036 3C4.07729 3 0.690459 5.68026 -0.24678 9.43315C-0.347143 9.83502 -0.754284 10.0794 -1.15615 9.97908C-1.55803 9.87872 -1.80245 9.47158 -1.70208 9.06971C-0.598992 4.65272 3.38484 1.5 8.00036 1.5Z" fill="#E6E6E6"/>
    </g>
    <defs>
        <clipPath id="clip0_3741_2331">
            <rect width="16" height="16" fill="white"/>
        </clipPath>
    </defs>
</svg>
