<svg width="21" height="20" viewBox="0 0 21 20" fill="none" xmlns="http://www.w3.org/2000/svg">
<path d="M3.48938 17.8454C3.55132 18.3973 3.89031 18.9118 4.43913 19.2868C4.98795 19.6618 5.70651 19.8699 6.45231 19.8699H14.3602C15.106 19.8699 15.8246 19.6618 16.3734 19.2868C16.9222 18.9118 17.2612 18.3973 17.3231 17.8454L18.5825 6.62305H2.22998L3.48938 17.8454Z" fill="#000"/>
<path d="M17.8391 2.20781H14.8659C14.866 1.91787 14.7891 1.63078 14.6396 1.36291C14.4902 1.09505 14.2712 0.85166 13.9951 0.646646C13.719 0.441632 13.3913 0.279006 13.0306 0.168054C12.6698 0.0571023 12.2832 -2.53687e-06 11.8928 0H8.91956C8.52912 0 8.1425 0.0571067 7.78177 0.168059C7.42105 0.279012 7.09329 0.441638 6.8172 0.646652C6.54112 0.851666 6.32211 1.09505 6.1727 1.36292C6.02328 1.63078 5.94638 1.91787 5.94638 2.20781H2.97319C2.18465 2.20781 1.42841 2.44041 0.870826 2.85446C0.313246 3.2685 0 3.83007 0 4.41561H20.8123C20.8123 4.12568 20.7354 3.83858 20.586 3.57072C20.4366 3.30286 20.2176 3.05947 19.9415 2.85445C19.6654 2.64944 19.3377 2.48681 18.9769 2.37586C18.6162 2.26491 18.2296 2.2078 17.8391 2.20781V2.20781Z" fill="#000"/>
</svg>
