<svg width="52" height="19" viewBox="0 0 52 19" fill="none" xmlns="http://www.w3.org/2000/svg">
<path d="M15.8494 6.43466H12.6619C12.571 5.91193 12.4034 5.44886 12.1591 5.04545C11.9148 4.63636 11.6108 4.28977 11.2472 4.00568C10.8835 3.72159 10.4688 3.50852 10.0028 3.36648C9.54261 3.21875 9.04545 3.14489 8.51136 3.14489C7.5625 3.14489 6.72159 3.38352 5.98864 3.86079C5.25568 4.33239 4.68182 5.02557 4.26705 5.94034C3.85227 6.84943 3.64489 7.96023 3.64489 9.27273C3.64489 10.608 3.85227 11.733 4.26705 12.6477C4.6875 13.5568 5.26136 14.2443 5.98864 14.7102C6.72159 15.1705 7.55966 15.4006 8.50284 15.4006C9.02557 15.4006 9.5142 15.3324 9.96875 15.196C10.429 15.054 10.8409 14.8466 11.2045 14.5739C11.5739 14.3011 11.8835 13.9659 12.1335 13.5682C12.3892 13.1705 12.5653 12.7159 12.6619 12.2045L15.8494 12.2216C15.7301 13.0511 15.4716 13.8295 15.0739 14.5568C14.6818 15.2841 14.1676 15.9261 13.5312 16.483C12.8949 17.0341 12.1506 17.4659 11.2983 17.7784C10.446 18.0852 9.5 18.2386 8.46023 18.2386C6.92614 18.2386 5.55682 17.8835 4.35227 17.1733C3.14773 16.4631 2.19886 15.4375 1.50568 14.0966C0.8125 12.7557 0.465909 11.1477 0.465909 9.27273C0.465909 7.39205 0.815341 5.78409 1.5142 4.44886C2.21307 3.10795 3.16477 2.08239 4.36932 1.37216C5.57386 0.661931 6.9375 0.306818 8.46023 0.306818C9.43182 0.306818 10.3352 0.443181 11.1705 0.715908C12.0057 0.988636 12.75 1.3892 13.4034 1.91761C14.0568 2.44034 14.5938 3.08239 15.0142 3.84375C15.4403 4.59943 15.7188 5.46307 15.8494 6.43466ZM26.9524 12.4943V4.90909H30.0376V18H27.0462V15.6733H26.9098C26.6143 16.4062 26.1286 17.0057 25.4524 17.4716C24.782 17.9375 23.9553 18.1705 22.9723 18.1705C22.1143 18.1705 21.3558 17.9801 20.6967 17.5994C20.0433 17.2131 19.532 16.6534 19.1626 15.9205C18.7933 15.1818 18.6087 14.2898 18.6087 13.2443V4.90909H21.6939V12.767C21.6939 13.5966 21.9212 14.2557 22.3757 14.7443C22.8303 15.233 23.4268 15.4773 24.1655 15.4773C24.62 15.4773 25.0604 15.3665 25.4865 15.1449C25.9126 14.9233 26.2621 14.5938 26.5348 14.1562C26.8132 13.7131 26.9524 13.1591 26.9524 12.4943ZM39.0057 18.2557C37.6932 18.2557 36.5597 17.983 35.6051 17.4375C34.6563 16.8864 33.9261 16.108 33.4148 15.1023C32.9034 14.0909 32.6477 12.9006 32.6477 11.5312C32.6477 10.1847 32.9034 9.00284 33.4148 7.9858C33.9318 6.96307 34.6534 6.16761 35.5795 5.59943C36.5057 5.02557 37.5938 4.73864 38.8438 4.73864C39.6506 4.73864 40.4119 4.86932 41.1278 5.13068C41.8494 5.38636 42.4858 5.78409 43.0369 6.32386C43.5938 6.86364 44.0313 7.55114 44.3494 8.38636C44.6676 9.21591 44.8267 10.2045 44.8267 11.3523V12.2983H34.0966V10.2188H41.8693C41.8636 9.62784 41.7358 9.10227 41.4858 8.64205C41.2358 8.17614 40.8864 7.80966 40.4375 7.54261C39.9943 7.27557 39.4773 7.14205 38.8864 7.14205C38.2557 7.14205 37.7017 7.29545 37.2244 7.60227C36.7472 7.90341 36.375 8.30114 36.108 8.79545C35.8466 9.28409 35.7131 9.82102 35.7074 10.4062V12.2216C35.7074 12.983 35.8466 13.6364 36.125 14.1818C36.4034 14.7216 36.7926 15.1364 37.2926 15.4261C37.7926 15.7102 38.3778 15.8523 39.0483 15.8523C39.4972 15.8523 39.9034 15.7898 40.267 15.6648C40.6307 15.5341 40.946 15.3438 41.2131 15.0938C41.4801 14.8438 41.6818 14.5341 41.8182 14.1648L44.6989 14.4886C44.517 15.25 44.1705 15.9148 43.6591 16.483C43.1534 17.0455 42.5057 17.483 41.7159 17.7955C40.9261 18.1023 40.0227 18.2557 39.0057 18.2557ZM49.3374 18.1875C48.8203 18.1875 48.3771 18.0057 48.0078 17.642C47.6385 17.2784 47.4567 16.8352 47.4624 16.3125C47.4567 15.8011 47.6385 15.3636 48.0078 15C48.3771 14.6364 48.8203 14.4545 49.3374 14.4545C49.8374 14.4545 50.272 14.6364 50.6413 15C51.0163 15.3636 51.2067 15.8011 51.2124 16.3125C51.2067 16.6591 51.1158 16.9744 50.9396 17.2585C50.7692 17.5426 50.5419 17.7699 50.2578 17.9403C49.9794 18.1051 49.6726 18.1875 49.3374 18.1875Z" fill="black"/>
</svg>
