<svg width="47" height="47" viewBox="0 0 47 47" fill="none" xmlns="http://www.w3.org/2000/svg">
<path d="M17.1521 16.1493C17.8567 16.1493 18.453 15.5802 18.453 14.8484V12.3009C18.453 11.5962 17.8838 11 17.1521 11C16.4474 11 15.8512 11.5691 15.8512 12.3009V14.8755C15.8512 15.5802 16.4474 16.1493 17.1521 16.1493Z" fill="#DF9981"/>
<path d="M25.7163 16.1493C26.4209 16.1493 27.0172 15.5802 27.0172 14.8484V12.3009C27.0172 11.5962 26.448 11 25.7163 11C25.0116 11 24.4154 11.5691 24.4154 12.3009V14.8755C24.4154 15.5802 24.9845 16.1493 25.7163 16.1493Z" fill="#DF9981"/>
<path d="M31.8683 24.713V16.8535C31.8683 15.2816 30.5945 14.0078 29.0226 14.0078H27.9657V14.848C27.9657 16.0675 26.9629 17.0974 25.7162 17.0974C24.4696 17.0974 23.4668 16.0946 23.4668 14.848V14.0078H19.4015V14.848C19.4015 16.0675 18.3988 17.0974 17.1521 17.0974C15.9325 17.0974 14.9026 16.0946 14.9026 14.848V14.0078H13.8457C12.2738 14.0078 11 15.2816 11 16.8535V29.6455C11 31.2174 12.2738 32.4912 13.8457 32.4912H23.521C24.3611 34.9574 26.6919 36.7461 29.4292 36.7461C32.8711 36.7461 35.6897 33.9276 35.6897 30.4857C35.7168 27.8839 34.1178 25.6615 31.8683 24.713ZM23.1958 30.4857C23.1958 30.5399 23.1958 30.567 23.1958 30.6212H13.8457C13.3307 30.6212 12.8971 30.1875 12.8971 29.6726V19.8618H29.9712V24.2523C29.8086 24.2252 29.6189 24.2252 29.4563 24.2252C25.9872 24.2252 23.1958 27.0437 23.1958 30.4857ZM29.4563 34.849C27.0442 34.849 25.0929 32.8977 25.0929 30.4857C25.0929 28.0736 27.0442 26.1223 29.4563 26.1223C31.8683 26.1223 33.8196 28.0736 33.8196 30.4857C33.8196 32.8977 31.8683 34.849 29.4563 34.849Z" fill="#DF9981"/>
<path d="M31.4618 29.5368H30.4048V28.4798C30.4048 27.9649 29.9712 27.5312 29.4563 27.5312C28.9414 27.5312 28.5077 27.9378 28.5077 28.4798V29.5368H27.4237C26.9087 29.5368 26.4751 29.9704 26.4751 30.4853C26.4751 31.0003 26.9087 31.4339 27.4237 31.4339H28.5077V32.4909C28.5077 33.0058 28.9414 33.4394 29.4563 33.4394C29.9712 33.4394 30.4048 33.0058 30.4048 32.4909V31.4339H31.4618C31.9767 31.4339 32.4104 31.0003 32.4104 30.4853C32.4104 29.9704 31.9767 29.5368 31.4618 29.5368Z" fill="#DF9981"/>
<rect x="0.5" y="0.5" width="46" height="46" rx="23" stroke="#DF9981"/>
</svg>
