<svg width="50" height="50" viewBox="0 0 50 50" fill="none" xmlns="http://www.w3.org/2000/svg">
<rect x="0.5" y="0.5" width="49" height="49" rx="24.5" stroke="white"/>
<path d="M18.1684 16C18.9894 16 19.6842 15.3368 19.6842 14.4842V11.5158C19.6842 10.6947 19.021 10 18.1684 10C17.3473 10 16.6526 10.6632 16.6526 11.5158V14.5158C16.6526 15.3368 17.3473 16 18.1684 16Z" fill="white"/>
<path d="M28.1474 16C28.9684 16 29.6632 15.3368 29.6632 14.4842V11.5158C29.6632 10.6947 29 10 28.1474 10C27.3263 10 26.6316 10.6632 26.6316 11.5158V14.5158C26.6316 15.3368 27.2947 16 28.1474 16Z" fill="white"/>
<path d="M35.0658 25.9789V26.1448L35.2187 26.2093C37.7519 27.2775 39.5489 29.7785 39.5184 32.7026V32.7053C39.5184 36.5777 36.3461 39.75 32.4737 39.75C29.396 39.75 26.7721 37.7384 25.8261 34.9615L25.7684 34.7921H25.5895H14.3158C12.6223 34.7921 11.25 33.4198 11.25 31.7263V16.821C11.25 15.1275 12.6223 13.7552 14.3158 13.7552H15.2974V14.4842C15.2974 16.0769 16.6113 17.3552 18.1684 17.3552C19.7611 17.3552 21.0395 16.0414 21.0395 14.4842V13.7552H25.2763V14.4842C25.2763 16.0749 26.5567 17.3552 28.1474 17.3552C29.74 17.3552 31.0184 16.0414 31.0184 14.4842V13.7552H32C33.6935 13.7552 35.0658 15.1275 35.0658 16.821V25.9789ZM25.2105 33.1131H25.4605V32.8631V32.8628V32.8624V32.862V32.8617V32.8613V32.8609V32.8606V32.8602V32.8598V32.8595V32.8591V32.8588V32.8584V32.858V32.8577V32.8573V32.857V32.8566V32.8562V32.8559V32.8555V32.8552V32.8548V32.8545V32.8541V32.8538V32.8534V32.8531V32.8527V32.8524V32.852V32.8517V32.8513V32.851V32.8506V32.8503V32.8499V32.8496V32.8492V32.8489V32.8485V32.8482V32.8479V32.8475V32.8472V32.8468V32.8465V32.8462V32.8458V32.8455V32.8451V32.8448V32.8445V32.8441V32.8438V32.8435V32.8431V32.8428V32.8425V32.8421V32.8418V32.8415V32.8411V32.8408V32.8405V32.8402V32.8398V32.8395V32.8392V32.8389V32.8385V32.8382V32.8379V32.8375V32.8372V32.8369V32.8366V32.8363V32.8359V32.8356V32.8353V32.835V32.8347V32.8343V32.834V32.8337V32.8334V32.8331V32.8327V32.8324V32.8321V32.8318V32.8315V32.8312V32.8308V32.8305V32.8302V32.8299V32.8296V32.8293V32.829V32.8287V32.8283V32.828V32.8277V32.8274V32.8271V32.8268V32.8265V32.8262V32.8259V32.8256V32.8253V32.825V32.8247V32.8243V32.824V32.8237V32.8234V32.8231V32.8228V32.8225V32.8222V32.8219V32.8216V32.8213V32.821V32.8207V32.8204V32.8201V32.8198V32.8195V32.8192V32.8189V32.8186V32.8183V32.818V32.8177V32.8174V32.8171V32.8168V32.8165V32.8162V32.8159V32.8156V32.8154V32.8151V32.8148V32.8145V32.8142V32.8139V32.8136V32.8133V32.813V32.8127V32.8124V32.8121V32.8118V32.8116V32.8113V32.811V32.8107V32.8104V32.8101V32.8098V32.8095V32.8092V32.8089V32.8087V32.8084V32.8081V32.8078V32.8075V32.8072V32.8069V32.8066V32.8064V32.8061V32.8058V32.8055V32.8052V32.8049V32.8046V32.8044V32.8041V32.8038V32.8035V32.8032V32.8029V32.8027V32.8024V32.8021V32.8018V32.8015V32.8012V32.801V32.8007V32.8004V32.8001V32.7998V32.7995V32.7993V32.799V32.7987V32.7984V32.7981V32.7979V32.7976V32.7973V32.797V32.7967V32.7965V32.7962V32.7959V32.7956V32.7953V32.7951V32.7948V32.7945V32.7942V32.7939V32.7937V32.7934V32.7931V32.7928V32.7925V32.7923V32.792V32.7917V32.7914V32.7911V32.7909V32.7906V32.7903V32.79V32.7898V32.7895V32.7892V32.7889V32.7886V32.7884V32.7881V32.7878V32.7875V32.7873V32.787V32.7867V32.7864V32.7861V32.7859V32.7856V32.7853V32.785V32.7848V32.7845V32.7842V32.7839V32.7836V32.7834V32.7831V32.7828V32.7825V32.7823V32.782V32.7817V32.7814V32.7811V32.7809V32.7806V32.7803V32.78V32.7798V32.7795V32.7792V32.7789V32.7786V32.7784V32.7781V32.7778V32.7775V32.7773V32.777V32.7767V32.7764V32.7761V32.7759V32.7756V32.7753V32.775V32.7747V32.7745V32.7742V32.7739V32.7736V32.7733V32.7731V32.7728V32.7725V32.7722V32.7719V32.7717V32.7714V32.7711V32.7708V32.7705V32.7703V32.77V32.7697V32.7694V32.7691V32.7689V32.7686V32.7683V32.768V32.7677V32.7674V32.7672V32.7669V32.7666V32.7663V32.766V32.7657V32.7655V32.7652V32.7649V32.7646V32.7643V32.764V32.7638V32.7635V32.7632V32.7629V32.7626V32.7623V32.762V32.7618V32.7615V32.7612V32.7609V32.7606V32.7603V32.76V32.7597V32.7595V32.7592V32.7589V32.7586V32.7583V32.758V32.7577V32.7574V32.7571V32.7568V32.7566V32.7563V32.756V32.7557V32.7554V32.7551V32.7548V32.7545V32.7542V32.7539V32.7536V32.7533V32.753V32.7527V32.7525V32.7522V32.7519V32.7516V32.7513V32.751V32.7507V32.7504V32.7501V32.7498V32.7495V32.7492V32.7489V32.7486V32.7483V32.748V32.7477V32.7474V32.7471V32.7468V32.7465V32.7462V32.7459V32.7456V32.7453V32.745V32.7447V32.7444V32.7441V32.7437V32.7434V32.7431V32.7428V32.7425V32.7422V32.7419V32.7416V32.7413V32.741V32.7407V32.7404V32.74V32.7397V32.7394V32.7391V32.7388V32.7385V32.7382V32.7379V32.7375V32.7372V32.7369V32.7366V32.7363V32.736V32.7357V32.7353V32.735V32.7347V32.7344V32.7341V32.7337V32.7334V32.7331V32.7328V32.7325V32.7321V32.7318V32.7315V32.7312V32.7308V32.7305V32.7302V32.7299V32.7295V32.7292V32.7289V32.7286V32.7282V32.7279V32.7276V32.7272V32.7269V32.7266V32.7263V32.7259V32.7256V32.7253V32.7249V32.7246V32.7243V32.7239V32.7236V32.7232V32.7229V32.7226V32.7222V32.7219V32.7216V32.7212V32.7209V32.7205V32.7202V32.7198V32.7195V32.7192V32.7188V32.7185V32.7181V32.7178V32.7174V32.7171V32.7167V32.7164V32.716V32.7157V32.7153V32.715V32.7146V32.7143V32.7139V32.7136V32.7132V32.7129V32.7125V32.7122V32.7118V32.7114V32.7111V32.7107V32.7104V32.71V32.7096V32.7093V32.7089V32.7086V32.7082V32.7078V32.7075V32.7071V32.7067V32.7064V32.706V32.7056V32.7053C25.4605 28.8321 28.6019 25.6605 32.5053 25.6605C32.6997 25.6605 32.8989 25.6612 33.0642 25.6887L33.3553 25.7372V25.4421V20.3263V20.0763H33.1053H13.2105H12.9605V20.3263V31.7579C12.9605 32.496 13.5777 33.1131 14.3158 33.1131H25.2105ZM27.1711 32.7053C27.1711 35.6538 29.5567 38.0395 32.5053 38.0395C35.4539 38.0395 37.8395 35.6538 37.8395 32.7053C37.8395 29.7567 35.4539 27.371 32.5053 27.371C29.5567 27.371 27.1711 29.7567 27.1711 32.7053Z" fill="white" stroke="white" stroke-width="0.5"/>
<path d="M33.3606 31.6V31.85H33.6106H34.8421C35.3041 31.85 35.6974 32.2433 35.6974 32.7053C35.6974 33.1672 35.3041 33.5605 34.8421 33.5605H33.6106H33.3606V33.8105V35.0421C33.3606 35.504 32.9672 35.8974 32.5053 35.8974C32.0434 35.8974 31.65 35.504 31.65 35.0421V33.8105V33.5605H31.4H30.1369C29.675 33.5605 29.2816 33.1672 29.2816 32.7053C29.2816 32.2433 29.675 31.85 30.1369 31.85H31.4H31.65V31.6V30.3684C31.65 29.8796 32.0387 29.5132 32.5053 29.5132C32.9672 29.5132 33.3606 29.9065 33.3606 30.3684V31.6Z" fill="white" stroke="white" stroke-width="0.5"/>
</svg>
