<svg width="38" height="38" viewBox="0 0 38 38" fill="none" xmlns="http://www.w3.org/2000/svg">
<path d="M9.1505 5C6.87401 5 5 6.87401 5 9.1505V28.5195C5 30.796 6.87401 32.67 9.1505 32.67H28.5195C30.796 32.67 32.67 30.796 32.67 28.5195V17.4515H29.903V28.5195C29.903 29.2867 29.2867 29.903 28.5195 29.903H9.1505C8.38329 29.903 7.767 29.2867 7.767 28.5195V9.1505C7.767 8.38329 8.38329 7.767 9.1505 7.767H21.602V5H9.1505ZM30.5569 7.64811L17.7001 21.2777L12.6201 16.1977L10.6637 18.1541L17.7568 25.2472L32.57 9.54772L30.5569 7.64811Z" fill="#1A1A1A"/>
</svg>
