<svg width="38" height="38" viewBox="0 0 38 38" fill="none" xmlns="http://www.w3.org/2000/svg">
<path d="M31.7933 27.7945C31.7511 27.7608 27.4193 21.0651 26.12 21.0651C24.8452 21.0651 22.4129 24.3163 22.4129 24.3163C20.5218 22.3661 16.3344 16.8278 15.101 16.8278C13.827 16.8278 8.81219 23.6831 5.99242 27.7945H31.7933ZM24.2129 13.4424C24.2129 15.1647 25.605 16.5577 27.3273 16.5577C29.0495 16.5577 30.4417 15.1647 30.4417 13.4424C30.4417 11.7202 29.0495 10.3272 27.3273 10.3272C25.605 10.3272 24.2129 11.7202 24.2129 13.4424ZM2 7.53273V30.3273C2 32.4548 2.43056 32.86 4.53273 32.86H33.237C35.3231 32.86 35.7697 32.4716 35.7697 30.3273V7.53273C35.7697 5.45589 35.3721 5 33.237 5H4.53273C2.43901 5 2 5.36302 2 7.53273ZM4.53273 7.53273H33.237V30.3273H4.53273V7.53273Z" fill="black"/>
</svg>
