<svg width="28" height="28" viewBox="0 0 28 28" fill="none" xmlns="http://www.w3.org/2000/svg">
<path d="M16.6206 8.0202L17.0368 7.60411L16.8751 7.03829C16.5668 5.9595 16.8065 4.99541 17.1641 4.25359C17.5206 3.51414 17.9679 3.05594 17.9772 3.04642L17.9773 3.04628L17.2847 2.35356L17.9773 3.04628C18.0148 3.00886 18.0497 3 18.0758 3C18.102 3 18.1369 3.00886 18.1743 3.04628L25.297 10.168C25.3348 10.2059 25.34 10.2371 25.3398 10.2541C25.3396 10.2643 25.3376 10.2757 25.3319 10.2886C25.3274 10.2987 25.3192 10.3132 25.3032 10.3307C25.2935 10.3388 25.2832 10.3474 25.2723 10.3565C24.8132 10.7424 23.2725 12.0371 21.2759 11.4667L20.7102 11.3051L20.2942 11.7211L17.072 14.9428L16.6467 15.3681L16.8229 15.943C17.3435 17.6416 18.1151 21.6999 15.1783 24.6363C15.1542 24.6603 15.1347 24.6712 15.1228 24.6762C15.1107 24.6813 15.1012 24.6826 15.0939 24.6826C15.0866 24.6826 15.0772 24.6813 15.065 24.6762C15.0531 24.6712 15.0336 24.6603 15.0096 24.6363L10.148 19.7755L9.44282 19.0703L8.73577 19.7736L3.21737 25.2628L3.21554 25.2646C3.19153 25.2886 3.172 25.2994 3.16008 25.3044C3.14794 25.3095 3.13848 25.3109 3.13119 25.3109C3.08596 25.3109 3.06844 25.3046 3.06584 25.3036C3.06398 25.3029 3.06169 25.3019 3.05795 25.2996C3.05411 25.2972 3.04544 25.2912 3.03228 25.2786C2.99765 25.2453 2.97623 25.1675 3.04619 25.0969C3.04641 25.0967 3.04663 25.0965 3.04684 25.0963L8.56339 19.609L9.27431 18.9018L8.56523 18.1928L3.70371 13.332C3.66629 13.2946 3.65748 13.2597 3.65748 13.2337C3.65748 13.2077 3.66629 13.1728 3.70371 13.1354C6.64053 10.199 10.6704 10.9698 12.4027 11.4922L12.9755 11.6649L13.3985 11.2419L16.6206 8.0202Z" stroke="black" stroke-width="2"/>
</svg>
